<?xml version="1.0" encoding="UTF-8"?>
<svg width="1024" height="1024" viewBox="0 0 1024 1024" xmlns="http://www.w3.org/2000/svg">
  <defs>
    <!-- Gradients for the rocket -->
    <linearGradient id="rocketBody" x1="0%" y1="0%" x2="100%" y2="100%">
      <stop offset="0%" style="stop-color:#ff6b6b;stop-opacity:1" />
      <stop offset="100%" style="stop-color:#ee5a24;stop-opacity:1" />
    </linearGradient>
    <linearGradient id="rocketTip" x1="0%" y1="0%" x2="100%" y2="100%">
      <stop offset="0%" style="stop-color:#4834d4;stop-opacity:1" />
      <stop offset="100%" style="stop-color:#3742fa;stop-opacity:1" />
    </linearGradient>
    <linearGradient id="flames" x1="0%" y1="0%" x2="100%" y2="100%">
      <stop offset="0%" style="stop-color:#ffd700;stop-opacity:1" />
      <stop offset="50%" style="stop-color:#ff8c00;stop-opacity:1" />
      <stop offset="100%" style="stop-color:#ff4500;stop-opacity:1" />
    </linearGradient>
    <radialGradient id="window" cx="50%" cy="50%" r="50%">
      <stop offset="0%" style="stop-color:#87ceeb;stop-opacity:0.8" />
      <stop offset="100%" style="stop-color:#4682b4;stop-opacity:1" />
    </radialGradient>
  </defs>
  
  <!-- Background circle -->
  <circle cx="512" cy="512" r="480" fill="#f8f9fa" stroke="#e9ecef" stroke-width="4"/>
  
  <!-- Rocket flames -->
  <ellipse cx="512" cy="720" rx="80" ry="120" fill="url(#flames)" opacity="0.9"/>
  <ellipse cx="480" cy="740" rx="25" ry="60" fill="#ffd700" opacity="0.7"/>
  <ellipse cx="544" cy="740" rx="25" ry="60" fill="#ffd700" opacity="0.7"/>
  
  <!-- Rocket body -->
  <rect x="412" y="280" width="200" height="320" rx="100" ry="100" fill="url(#rocketBody)"/>
  
  <!-- Rocket tip -->
  <ellipse cx="512" cy="240" rx="100" ry="120" fill="url(#rocketTip)"/>
  
  <!-- Rocket window -->
  <circle cx="512" cy="380" r="60" fill="url(#window)" stroke="#2c3e50" stroke-width="4"/>
  
  <!-- Rocket fins -->
  <polygon points="412,520 380,580 412,580" fill="#34495e"/>
  <polygon points="612,520 644,580 612,580" fill="#34495e"/>
  
  <!-- Rocket details -->
  <rect x="450" y="450" width="124" height="8" rx="4" fill="#2c3e50" opacity="0.3"/>
  <rect x="450" y="470" width="124" height="8" rx="4" fill="#2c3e50" opacity="0.3"/>
  <rect x="450" y="490" width="124" height="8" rx="4" fill="#2c3e50" opacity="0.3"/>
  
  <!-- Stars around rocket -->
  <polygon points="200,150 205,165 220,165 208,175 213,190 200,180 187,190 192,175 180,165 195,165" fill="#ffd700" opacity="0.8"/>
  <polygon points="750,200 753,210 763,210 755,216 758,226 750,220 742,226 745,216 737,210 747,210" fill="#ffd700" opacity="0.8"/>
  <polygon points="850,400 853,410 863,410 855,416 858,426 850,420 842,426 845,416 837,410 847,410" fill="#ffd700" opacity="0.8"/>
  <polygon points="150,500 153,510 163,510 155,516 158,526 150,520 142,526 145,516 137,510 147,510" fill="#ffd700" opacity="0.8"/>
</svg>
